# xmcd
#
# Track frame offsets: 
#        150
#        13570
#        32542
#        46065
#        59867
#        76940
#        88857
#        106127
#        114122
#        130512
#        146135
#        160347
#
# Disc length: 2387 seconds
#
# Revision: 2
# Processed by: cddbd v1.5.2PL0 Copyright (c) Steve Scherf et al.
# Submitted via: ExactAudioCopy v0.99pb4
#
DISCID=9109510c
DTITLE=Petri Laaksonen - T‰‰ll‰ pohjant‰hden alla
DYEAR=1992
DGENRE=Folk
TTITLE0=T‰‰ll‰ pohjant‰hden alla
TTITLE1=Oot kaikki mulle
TTITLE2=Meren laulua kuuntelen
TTITLE3=Min‰ toivoisin niin
TTITLE4=Takana taivaan ja tuulten
TTITLE5=Tein lasinkuultavan laulun
TTITLE6=Tuleen j‰in
TTITLE7=ƒl‰ el‰m‰‰ pelk‰‰
TTITLE8=Sinne lapsuuden maisemiin
TTITLE9=Unen j‰lkeen
TTITLE10=J‰lkeenp‰in
TTITLE11=T‰‰ll‰ pohjant‰hden alla
EXTD=
EXTT0=
EXTT1=
EXTT2=
EXTT3=
EXTT4=
EXTT5=
EXTT6=
EXTT7=
EXTT8=
EXTT9=
EXTT10=
EXTT11=
PLAYORDER=
